<svg xmlns="http://www.w3.org/2000/svg" viewBox="0 0 32 32"><path fill="#F7931A" d="M23.2 14.3c.3-2-1.2-3.1-3.3-3.8l.7-2.7-1.7-.4-.7 2.6c-.4-.1-.9-.2-1.4-.3l.7-2.6-1.7-.4-.7 2.7c-.4-.1-.7-.2-1-.3V7.4l-2.3-.6-.4 1.8s1.3.3 1.3.3c.7.2.8.7.8 1.1v6.6c0 .1.1.2.2.2h.2c.1 0 .2-.1.2-.2v-8.3c0-.5-.2-.9-.7-1.1.0 0-1.3-.3-1.3-.3l-.9-3.6-3.1.8c.6.1 1.1.3 1.6.4l-.7 2.6 1.6.4.7-2.6c.4.1.9.2 1.3.3l-.7 2.6 1.7.4.7-2.7c2.4.5 4.2 2.3 3.9 4.8-.3 1.9-1.5 2.5-2.9 2.9 2.1.5 3.7 1.9 3.3 4.8-.4 3.1-2.7 4.1-5.2 4.6l1 2.2 1.8-.4-.1-.4c.7.2 1.4.3 2 .3 3.5.1 5.9-1.7 6-4.3.1-2.2-1.4-3.4-3.6-4.2 1.3-.3 2.3-1.2 2.1-2.9zm-4 6.9c-.5 2.1-4 .9-5.2.7l.9-3.6c1.2.2 4.8.9 4.3 2.9zm.5-6.8c-.5 1.9-3.4.9-4.3.7l.8-3.2c.9.2 3.8.6 3.5 2.5z"/></svg>
